<svg width="53" height="43" viewBox="0 0 53 43" fill="none" xmlns="http://www.w3.org/2000/svg">
<path d="M37.5 27.0752C37.5 20.4478 32.1274 15.0752 25.5 15.0752H15.5V27.0752H25.5V42.0752H37.5V27.0752Z" fill="#FF4D00"></path>
<path d="M0.5 28.0752C0.500001 35.8072 6.76801 42.0752 14.5 42.0752L22.5 42.0752L22.5 30.0752H14.5C13.3954 30.0752 12.5 29.1798 12.5 28.0752V27.0752L0.5 27.0752L0.5 28.0752Z" fill="#FF4D00"></path>
<path d="M25.5 0.0751953C40.4117 0.0751953 52.5 12.1635 52.5 27.0752V42.0752H40.5V27.0752C40.5 18.7909 33.7843 12.0752 25.5 12.0752H14.5C13.3954 12.0752 12.5 12.9706 12.5 14.0752V15.0752H0.500001V14.0752C0.500002 6.34321 6.76802 0.0751953 14.5 0.0751953H25.5Z" fill="#FF4D00"></path>
</svg>