<svg xmlns="http://www.w3.org/2000/svg" xml:space="preserve" id="svg4243" x="0" y="0" version="1.1" viewBox="0 0 512 512"><style>.st1{fill:#e37300}</style><g id="g6628" transform="translate(-174.95 -339.18)scale(3.54856)"><path id="path3806" d="M149.3 112.8V221c0 12.1 8.4 18.9 17.2 18.9 8.2 0 17.2-5.7 17.2-18.9V113.6c0-11.1-8.2-18-17.2-18s-17.2 7.6-17.2 17.2" style="fill:#f8ab00"/><path id="path3808" d="M104.2 167.7V221c0 12.1 8.4 18.9 17.2 18.9 8.2 0 17.2-5.7 17.2-18.9v-52.5c0-11.1-8.2-18-17.2-18s-17.2 7.7-17.2 17.2" class="st1"/><path id="path3810" d="M93.6 222.7c0 9.5-7.7 17.2-17.2 17.2s-17.2-7.7-17.2-17.2 7.7-17.2 17.2-17.2 17.2 7.6 17.2 17.2" class="st1"/></g></svg>