<svg xmlns="http://www.w3.org/2000/svg" xml:space="preserve" id="Layer_1" x="0" y="0" version="1.1" viewBox="53.5 0 405 512"><style>.st0,.st1{fill:#509ee3}.st1{opacity:.2;enable-background:new}</style><ellipse cx="84.2" cy="130.9" class="st0" rx="30.7" ry="31.2"/><ellipse cx="84.2" cy="218.2" class="st0" rx="30.7" ry="31.2"/><ellipse cx="170.1" cy="130.9" class="st1" rx="30.7" ry="31.2"/><ellipse cx="170.1" cy="219" class="st0" rx="30.7" ry="31.2"/><ellipse cx="256" cy="130.9" class="st1" rx="30.7" ry="31.2"/><ellipse cx="256" cy="31.2" class="st1" rx="30.7" ry="31.2"/><ellipse cx="256" cy="219" class="st1" rx="30.7" ry="31.2"/><ellipse cx="341.9" cy="130.9" class="st1" rx="30.7" ry="31.2"/><ellipse cx="427.8" cy="130.9" class="st0" rx="30.7" ry="31.2"/><ellipse cx="341.9" cy="219" class="st0" rx="30.7" ry="31.2"/><ellipse cx="427.8" cy="219" class="st0" rx="30.7" ry="31.2"/><ellipse cx="84.2" cy="305.4" class="st0" rx="30.7" ry="31.2"/><ellipse cx="170.1" cy="306.3" class="st1" rx="30.7" ry="31.2"/><ellipse cx="256" cy="306.3" class="st0" rx="30.7" ry="31.2"/><ellipse cx="341.9" cy="306.3" class="st1" rx="30.7" ry="31.2"/><ellipse cx="427.8" cy="306.3" class="st0" rx="30.7" ry="31.2"/><ellipse cx="84.2" cy="392.7" class="st0" rx="30.7" ry="31.2"/><ellipse cx="170.1" cy="393.6" class="st1" rx="30.7" ry="31.2"/><ellipse cx="256" cy="393.6" class="st1" rx="30.7" ry="31.2"/><ellipse cx="256" cy="480.8" class="st1" rx="30.7" ry="31.2"/><ellipse cx="341.9" cy="393.6" class="st1" rx="30.7" ry="31.2"/><ellipse cx="427.8" cy="393.6" class="st0" rx="30.7" ry="31.2"/></svg>